<svg id="Layer_1" data-name="Layer 1" xmlns="http://www.w3.org/2000/svg" viewBox="0 0 791.31123 341.53333">
  <defs>
    <style>
      .cls-1 {
        fill: #00497a;
      }

      .cls-2 {
        fill: #82b3c4;
      }
    </style>
  </defs>
  <g>
    <g>
      <path class="cls-1" d="M254.92623,195.65788V169.03255h-6.70854V155.40664h6.70854V141.0464h15.93261v14.36024h13.20757v13.62591H270.85884v24.0047c0,3.66888,1.57238,5.45009,5.13685,5.45009a16.19711,16.19711,0,0,0,7.8612-1.99141v12.78786a23.47833,23.47833,0,0,1-12.57834,3.24986C261.53035,212.53365,254.92623,208.65593,254.92623,195.65788Z"/>
      <path class="cls-1" d="M291.51,183.81318v-.2102c0-16.03771,11.42568-29.2446,27.77732-29.2446,18.76344,0,27.35829,14.57044,27.35829,30.50305,0,1.25708-.10442,2.72573-.20952,4.193H307.33815c1.57238,7.23266,6.60344,11.00528,13.731,11.00528,5.34636,0,9.22476-1.67611,13.62728-5.764l9.119,8.07072c-5.24057,6.49834-12.78785,10.48252-22.95576,10.48252C303.98388,212.84894,291.51,201.00424,291.51,183.81318Zm39.622-4.71714c-.94315-7.12757-5.13616-11.9498-11.8447-11.9498-6.60344,0-10.90087,4.71714-12.15932,11.9498Z"/>
      <path class="cls-1" d="M358.49231,155.40664H374.4256v7.96562c3.6682-4.71577,8.49044-9.01388,16.56116-9.01388,7.33776,0,12.89295,3.24986,15.82819,8.91015,4.92665-5.76539,10.79646-8.91015,18.44883-8.91015,11.8447,0,18.97227,7.12757,18.97227,20.64975v36.58236H428.30344v-31.3411c0-7.548-3.35427-11.42567-9.32917-11.42567s-9.64378,3.87771-9.64378,11.42567v31.3411H393.39787v-31.3411c0-7.548-3.35427-11.42567-9.32917-11.42567s-9.6431,3.87771-9.6431,11.42567v31.3411H358.49231Z"/>
      <path class="cls-1" d="M458.07557,155.40664h15.9333v8.07072c3.8784-5.24126,9.22407-9.119,17.505-9.119,13.10247,0,25.5764,10.27233,25.5764,29.03577v.20883c0,18.76344-12.26442,29.03576-25.5764,29.03576-8.49043,0-13.73169-3.87907-17.505-8.386v24.1098h-15.9333ZM501.157,183.603v-.20883c0-9.32917-6.28883-15.51359-13.731-15.51359-7.44286,0-13.62728,6.18442-13.62728,15.51359v.20883c0,9.32917,6.18442,15.51359,13.62728,15.51359C494.86813,199.11657,501.157,193.03725,501.157,183.603Z"/>
      <path class="cls-1" d="M526.10618,183.81318v-.2102c0-16.14144,12.99805-29.2446,30.503-29.2446,17.3999,0,30.29285,12.893,30.29285,29.03577v.20883c0,16.14281-12.99737,29.246-30.50236,29.246C538.99913,212.84894,526.10618,199.956,526.10618,183.81318Zm45.07279,0v-.2102c0-8.28092-5.9749-15.51359-14.77926-15.51359-9.11966,0-14.57043,7.02384-14.57043,15.30476v.20883c0,8.28092,5.9749,15.51359,14.77994,15.51359C565.7282,199.11657,571.179,192.09409,571.179,183.81318Z"/>
      <path class="cls-1" d="M598.43353,155.40664h15.93329v7.96562c3.6682-4.71577,8.49044-9.01388,16.56116-9.01388,7.33776,0,12.89295,3.24986,15.82819,8.91015,4.92665-5.76539,10.79646-8.91015,18.44883-8.91015,11.8447,0,18.97227,7.12757,18.97227,20.64975v36.58236H668.24466v-31.3411c0-7.548-3.35427-11.42567-9.32917-11.42567s-9.64378,3.87771-9.64378,11.42567v31.3411H633.33909v-31.3411c0-7.548-3.35427-11.42567-9.32917-11.42567s-9.6431,3.87771-9.6431,11.42567v31.3411H598.43353Z"/>
      <path class="cls-1" d="M694.66321,195.44768v-.20883c0-12.26509,9.32917-17.92538,22.64183-17.92538a39.92961,39.92961,0,0,1,13.731,2.3067V178.677c0-6.60344-4.08791-10.27232-12.05421-10.27232a41.31218,41.31218,0,0,0-15.51359,3.03966l-3.98281-12.16a49.58325,49.58325,0,0,1,21.80241-4.50694c8.69995,0,14.98946,2.3067,18.973,6.28951,4.19232,4.193,6.07931,10.37743,6.07931,17.924v32.59955H730.93164v-6.07931c-3.8784,4.29674-9.22408,7.12756-16.98087,7.12756C703.36384,212.63874,694.66321,206.55943,694.66321,195.44768Zm36.583-3.66888v-2.82946a24.69779,24.69779,0,0,0-10.16791-2.09651c-6.81364,0-11.006,2.72573-11.006,7.7568v.20883c0,4.29811,3.56378,6.81364,8.69994,6.81364C726.2145,201.6321,731.24625,197.54419,731.24625,191.7788Z"/>
      <path class="cls-1" d="M762.17105,195.65788V169.03255h-6.70854V155.40664h6.70854V141.0464h15.93261v14.36024h13.20757v13.62591H778.10366v24.0047c0,3.66888,1.57238,5.45009,5.13685,5.45009a16.19718,16.19718,0,0,0,7.86121-1.99141v12.78786a23.47837,23.47837,0,0,1-12.57835,3.24986C768.77518,212.53365,762.17105,208.65593,762.17105,195.65788Z"/>
    </g>
    <g>
      <g>
        <path class="cls-1" d="M174.17568,98.62017a102.0289,102.0289,0,1,0,29.88406,72.1465A101.35793,101.35793,0,0,0,174.17568,98.62017Zm12.10336,72.1465A84.24981,84.24981,0,0,1,42.45694,230.3396,84.24885,84.24885,0,1,1,161.6028,111.19373,83.69639,83.69639,0,0,1,186.279,170.76667Z"/>
        <path class="cls-1" d="M147.47528,208.79583H124.13871a8.89036,8.89036,0,1,0,0,17.78071h23.33657a8.89036,8.89036,0,1,0,0-17.78071Z"/>
      </g>
      <path class="cls-1" d="M63.2111,117.55968a8.89061,8.89061,0,1,0-12.57288,12.57357l43.01109,43.01109-38.253,38.25438a8.89037,8.89037,0,1,0,12.5722,12.57356l50.82794-50.82794Z"/>
      <path class="cls-2" d="M106.22288,160.57214,55.39562,211.40008a8.89013,8.89013,0,1,0,12.57288,12.5722l50.82794-50.82794Z"/>
    </g>
  </g>
</svg>
